<svg width="24" height="24" viewBox="0 0 24 24" fill="none" xmlns="http://www.w3.org/2000/svg">
<path d="M5.625 9.75C5.52554 9.75 5.43016 9.78951 5.35984 9.85984C5.28951 9.93016 5.25 10.0255 5.25 10.125V19.875C5.25 20.082 5.418 20.25 5.625 20.25H18.375C18.4745 20.25 18.5698 20.2105 18.6402 20.1402C18.7105 20.0698 18.75 19.9745 18.75 19.875V10.125C18.75 10.0255 18.7105 9.93016 18.6402 9.85984C18.5698 9.78951 18.4745 9.75 18.375 9.75H16.875C16.5766 9.75 16.2905 9.63148 16.0795 9.4205C15.8685 9.20952 15.75 8.92337 15.75 8.625C15.75 8.32664 15.8685 8.04049 16.0795 7.82951C16.2905 7.61853 16.5766 7.5 16.875 7.5H18.375C19.824 7.5 21 8.676 21 10.125V19.875C21 20.5712 20.7234 21.2389 20.2312 21.7312C19.7389 22.2234 19.0712 22.5 18.375 22.5H5.625C4.92881 22.5 4.26113 22.2234 3.76884 21.7312C3.27656 21.2389 3 20.5712 3 19.875V10.125C3 8.676 4.176 7.5 5.625 7.5H7.125C7.42337 7.5 7.70952 7.61853 7.9205 7.82951C8.13147 8.04049 8.25 8.32664 8.25 8.625C8.25 8.92337 8.13147 9.20952 7.9205 9.4205C7.70952 9.63148 7.42337 9.75 7.125 9.75H5.625ZM11.7345 0.265505C11.7693 0.230582 11.8107 0.202875 11.8563 0.18397C11.9018 0.165066 11.9507 0.155334 12 0.155334C12.0493 0.155334 12.0982 0.165066 12.1437 0.18397C12.1893 0.202875 12.2307 0.230582 12.2655 0.265505L16.6095 4.6095C16.6621 4.66195 16.6979 4.72883 16.7124 4.80166C16.727 4.87449 16.7195 4.95 16.6911 5.0186C16.6626 5.08721 16.6145 5.14582 16.5527 5.18702C16.4909 5.22822 16.4183 5.25014 16.344 5.25H13.125V13.875C13.125 14.1734 13.0065 14.4595 12.7955 14.6705C12.5845 14.8815 12.2984 15 12 15C11.7016 15 11.4155 14.8815 11.2045 14.6705C10.9935 14.4595 10.875 14.1734 10.875 13.875V5.25H7.656C7.58173 5.25014 7.5091 5.22822 7.44731 5.18702C7.38552 5.14582 7.33735 5.08721 7.30891 5.0186C7.28047 4.95 7.27305 4.87449 7.28757 4.80166C7.3021 4.72883 7.33792 4.66195 7.3905 4.6095L11.7345 0.265505Z" fill="#A0DFC7"/>
</svg>
