<svg width="40" height="39" viewBox="0 0 40 39" fill="none" xmlns="http://www.w3.org/2000/svg">
<path d="M19.5833 0C17.0116 0 14.4651 0.506538 12.0891 1.49069C9.71316 2.47485 7.55431 3.91735 5.73583 5.73583C2.06324 9.40841 0 14.3895 0 19.5833C0 28.2392 5.62042 35.5829 13.395 38.1875C14.3742 38.3442 14.6875 37.7371 14.6875 37.2083V33.8988C9.26292 35.0737 8.1075 31.2746 8.1075 31.2746C7.20667 29.0029 5.93375 28.3958 5.93375 28.3958C4.15167 27.1817 6.07083 27.2208 6.07083 27.2208C8.02917 27.3579 9.06708 29.2379 9.06708 29.2379C10.7708 32.2146 13.6496 31.3333 14.7658 30.8633C14.9421 29.5904 15.4513 28.7288 15.9996 28.2392C11.6521 27.7496 7.08917 26.0654 7.08917 18.6042C7.08917 16.4304 7.83333 14.6875 9.10625 13.2971C8.91042 12.8075 8.225 10.7708 9.30208 8.12708C9.30208 8.12708 10.9471 7.59833 14.6875 10.1246C16.2346 9.69375 17.9188 9.47833 19.5833 9.47833C21.2479 9.47833 22.9321 9.69375 24.4792 10.1246C28.2196 7.59833 29.8646 8.12708 29.8646 8.12708C30.9417 10.7708 30.2563 12.8075 30.0604 13.2971C31.3333 14.6875 32.0775 16.4304 32.0775 18.6042C32.0775 26.085 27.495 27.73 23.1279 28.2196C23.8329 28.8267 24.4792 30.0213 24.4792 31.8425V37.2083C24.4792 37.7371 24.7925 38.3638 25.7913 38.1875C33.5658 35.5633 39.1667 28.2392 39.1667 19.5833C39.1667 17.0116 38.6601 14.4651 37.676 12.0891C36.6918 9.71316 35.2493 7.55431 33.4308 5.73583C31.6124 3.91735 29.4535 2.47485 27.0776 1.49069C24.7016 0.506538 22.1551 0 19.5833 0Z" fill="#A0DFC7"/>
</svg>
