<svg width="47" height="47" viewBox="0 0 47 47" fill="none" xmlns="http://www.w3.org/2000/svg">
<path d="M15.275 3.91663H31.725C37.9917 3.91663 43.0833 9.00829 43.0833 15.275V31.725C43.0833 34.7374 41.8867 37.6264 39.7566 39.7565C37.6265 41.8866 34.7374 43.0833 31.725 43.0833H15.275C9.00833 43.0833 3.91667 37.9916 3.91667 31.725V15.275C3.91667 12.2625 5.11334 9.37351 7.24345 7.24341C9.37355 5.1133 12.2626 3.91663 15.275 3.91663ZM14.8833 7.83329C13.0136 7.83329 11.2204 8.57606 9.89823 9.89819C8.5761 11.2203 7.83333 13.0135 7.83333 14.8833V32.1166C7.83333 36.0137 10.9862 39.1666 14.8833 39.1666H32.1167C33.9864 39.1666 35.7796 38.4239 37.1018 37.1017C38.4239 35.7796 39.1667 33.9864 39.1667 32.1166V14.8833C39.1667 10.9862 36.0138 7.83329 32.1167 7.83329H14.8833ZM33.7812 10.7708C34.4305 10.7708 35.0531 11.0287 35.5122 11.4878C35.9713 11.9468 36.2292 12.5695 36.2292 13.2187C36.2292 13.8679 35.9713 14.4906 35.5122 14.9496C35.0531 15.4087 34.4305 15.6666 33.7812 15.6666C33.132 15.6666 32.5094 15.4087 32.0503 14.9496C31.5912 14.4906 31.3333 13.8679 31.3333 13.2187C31.3333 12.5695 31.5912 11.9468 32.0503 11.4878C32.5094 11.0287 33.132 10.7708 33.7812 10.7708ZM23.5 13.7083C26.0969 13.7083 28.5875 14.7399 30.4238 16.5762C32.26 18.4125 33.2917 20.903 33.2917 23.5C33.2917 26.0969 32.26 28.5874 30.4238 30.4237C28.5875 32.26 26.0969 33.2916 23.5 33.2916C20.9031 33.2916 18.4125 32.26 16.5762 30.4237C14.74 28.5874 13.7083 26.0969 13.7083 23.5C13.7083 20.903 14.74 18.4125 16.5762 16.5762C18.4125 14.7399 20.9031 13.7083 23.5 13.7083ZM23.5 17.625C21.9419 17.625 20.4475 18.2439 19.3457 19.3457C18.244 20.4475 17.625 21.9418 17.625 23.5C17.625 25.0581 18.244 26.5524 19.3457 27.6542C20.4475 28.756 21.9419 29.375 23.5 29.375C25.0581 29.375 26.5525 28.756 27.6543 27.6542C28.756 26.5524 29.375 25.0581 29.375 23.5C29.375 21.9418 28.756 20.4475 27.6543 19.3457C26.5525 18.2439 25.0581 17.625 23.5 17.625Z" fill="#A0DFC7"/>
</svg>
