<svg width="24" height="24" viewBox="0 0 24 24" fill="none" xmlns="http://www.w3.org/2000/svg">
<path d="M12 20.703L12.343 21.37C12.2369 21.4247 12.1193 21.4533 12 21.4533C11.8807 21.4533 11.7631 21.4247 11.657 21.37L11.654 21.368L11.647 21.365L11.622 21.352C9.76058 20.3411 8.00716 19.1429 6.389 17.776C3.8 15.573 1 12.332 1 8.514V8.513C1 5.053 3.829 2.5 6.736 2.5C9.03 2.5 10.881 3.726 12 5.605C13.12 3.726 14.97 2.5 17.264 2.5C20.17 2.5 23 5.052 23 8.514C23 12.332 20.199 15.574 17.611 17.776C15.9928 19.1428 14.2394 20.341 12.378 21.352L12.353 21.365L12.346 21.368L12.344 21.369L12 20.703ZM6.736 4C4.657 4 2.5 5.88 2.5 8.514C2.5 11.621 4.824 14.474 7.361 16.634C8.78018 17.833 10.3089 18.896 11.927 19.809L12 19.85L12.073 19.81C12.344 19.657 12.734 19.43 13.203 19.136C14.143 18.548 15.393 17.695 16.639 16.634C19.176 14.474 21.5 11.621 21.5 8.514C21.5 5.88 19.343 4 17.264 4C15.158 4 13.463 5.389 12.711 7.643C12.6605 7.79149 12.5648 7.92043 12.4373 8.01175C12.3097 8.10307 12.1568 8.15217 12 8.15217C11.8432 8.15217 11.6903 8.10307 11.5627 8.01175C11.4352 7.92043 11.3395 7.79149 11.289 7.643C10.537 5.389 8.841 4 6.736 4Z" fill="#A0DFC7"/>
</svg>
