<svg width="230" height="45" viewBox="0 0 230 45" fill="none" xmlns="http://www.w3.org/2000/svg">
<path d="M51.0596 34.8304V33.2502L54.2934 32.552L53.9259 33.1032V17.2651L54.3301 17.8163L51.0596 17.1181V15.538L56.2042 15.2807L56.6085 18.882L56.2042 18.735C57.3067 17.5836 58.3846 16.6894 59.438 16.0524C60.4914 15.4155 61.6429 15.097 62.8923 15.097C63.6762 15.097 64.4969 15.2195 65.3544 15.4645L65.1339 20.8296H63.2965L62.8555 16.9711L63.1863 17.6326C63.0148 17.5836 62.831 17.5468 62.635 17.5223C62.4391 17.4978 62.2431 17.4856 62.0471 17.4856C61.0672 17.4856 60.1117 17.7795 59.1808 18.3675C58.2744 18.9555 57.4047 19.7149 56.5717 20.6458L56.8657 19.7639V33.1032L56.4247 32.552L60.4302 33.2502V34.8304H51.0596ZM81.235 33.1767L80.7573 32.5153L84.138 33.1767V34.7936L78.9934 35.0141L78.5524 31.4863L78.8097 31.5966C77.7317 32.7725 76.5681 33.6667 75.3187 34.2791C74.0692 34.8671 72.8566 35.1611 71.6807 35.1611C70.2598 35.1611 69.0593 34.7079 68.0794 33.8014C67.0995 32.895 66.6095 31.5231 66.6095 29.6857C66.6095 28.2403 66.9157 27.1379 67.5282 26.3784C68.1407 25.5945 68.9858 25.0433 70.0638 24.7248C71.1417 24.4063 72.3911 24.2471 73.812 24.2471H78.6259L78.2952 24.6146V21.0868C78.2952 19.7394 77.94 18.784 77.2295 18.2205C76.5191 17.6326 75.5391 17.3386 74.2897 17.3386C73.6283 17.3386 72.9178 17.4121 72.1584 17.5591C71.4234 17.6816 70.6395 17.8898 69.8065 18.1838L70.2475 17.7061L69.88 21.0501H67.9324L67.6384 16.4934C69.0348 16.0279 70.3455 15.6849 71.5704 15.4645C72.7953 15.2195 73.9223 15.097 74.9512 15.097C76.911 15.097 78.4422 15.538 79.5446 16.4199C80.6715 17.2773 81.235 18.6615 81.235 20.5724V33.1767ZM69.5861 29.4285C69.5861 30.6289 69.8678 31.5108 70.4312 32.0743C71.0192 32.6378 71.7542 32.9195 72.6361 32.9195C73.4935 32.9195 74.4367 32.6623 75.4656 32.1478C76.5191 31.6088 77.5357 30.8861 78.5157 29.9797L78.2952 30.7514V25.8272L78.6259 26.158H74.253C72.5136 26.158 71.3009 26.4274 70.615 26.9664C69.929 27.4809 69.5861 28.3016 69.5861 29.4285ZM92.7323 35.1611C91.4584 35.1611 90.454 34.7691 89.719 33.9852C88.9841 33.1767 88.6166 31.9641 88.6166 30.3472V17.0079L89.0943 17.4856H85.3094V15.8687L89.1311 15.3175L88.6166 15.9054V11.0548L91.5564 10.5771V15.9054L91.1522 15.4277H96.9215L96.8113 17.4856H91.1522L91.5564 17.0079V29.9429C91.5564 30.9719 91.7524 31.7191 92.1444 32.1845C92.5609 32.65 93.1366 32.8827 93.8715 32.8827C94.3125 32.8827 94.7902 32.8092 95.3047 32.6623C95.8191 32.5153 96.3703 32.307 96.9583 32.0375L97.583 33.7279C95.8436 34.6834 94.2267 35.1611 92.7323 35.1611ZM107.821 35.1611C106.18 35.1611 104.722 34.7936 103.448 34.0587C102.199 33.2992 101.219 32.1968 100.508 30.7514C99.798 29.306 99.4428 27.5421 99.4428 25.4598C99.4428 23.3284 99.8102 21.491 100.545 19.9476C101.28 18.4043 102.321 17.2161 103.669 16.3831C105.016 15.5257 106.596 15.097 108.409 15.097C110.124 15.097 111.533 15.4645 112.635 16.1994C113.762 16.9099 114.595 17.902 115.134 19.1759C115.697 20.4499 115.979 21.9075 115.979 23.5489C115.979 23.8184 115.967 24.0879 115.942 24.3573C115.918 24.6268 115.881 24.9575 115.832 25.3495H101.684V23.2549H113.26L112.929 23.4754C112.954 22.373 112.819 21.3563 112.525 20.4254C112.231 19.4944 111.729 18.7472 111.018 18.1838C110.308 17.6203 109.365 17.3386 108.189 17.3386C106.939 17.3386 105.886 17.6693 105.028 18.3308C104.171 18.9922 103.534 19.8986 103.118 21.0501C102.701 22.2015 102.493 23.5366 102.493 25.0555C102.493 26.6724 102.726 28.0688 103.191 29.2447C103.656 30.3962 104.33 31.2904 105.212 31.9273C106.119 32.5643 107.221 32.8827 108.519 32.8827C109.426 32.8827 110.418 32.7113 111.496 32.3683C112.574 32.0008 113.689 31.4496 114.84 30.7146L115.906 32.3683C114.534 33.2992 113.162 33.9974 111.79 34.4629C110.418 34.9283 109.095 35.1611 107.821 35.1611ZM141.036 33.2135L140.191 32.4785L143.645 33.2502V34.8304H134.091V33.2502L137.913 32.5153L137.619 33.0297L135.671 27.1501L136.222 27.5911H124.978L125.492 27.1501L123.397 32.9562L123.214 32.552L126.962 33.2502V34.8304H117.922V33.2502L121.303 32.4785L120.531 33.14L129.498 9.2174L132.548 9.10715L141.036 33.2135ZM125.896 25.864L125.602 25.3863H135.634L135.304 25.9007L130.49 10.9445L131.188 10.9813L125.896 25.864ZM156.166 21.8953L156.386 21.5645C158.052 21.589 159.461 21.8585 160.612 22.373C161.763 22.8629 162.621 23.5734 163.184 24.5043C163.772 25.4353 164.066 26.5622 164.066 27.8851C164.066 29.257 163.736 30.4697 163.074 31.5231C162.437 32.552 161.42 33.3605 160.024 33.9484C158.652 34.5364 156.888 34.8304 154.732 34.8304H144.517V33.2502L148.155 32.4785L147.677 33.14V10.9445L148.265 11.6427L144.517 10.9445V9.36439L150.58 9.18065H155.137C156.901 9.18065 158.37 9.42563 159.546 9.9156C160.722 10.4056 161.604 11.116 162.192 12.0469C162.78 12.9779 163.074 14.1171 163.074 15.4645C163.074 17.2283 162.535 18.6615 161.457 19.7639C160.379 20.8663 158.615 21.5768 156.166 21.8953ZM154.512 11.3855H150.139L150.69 10.8343V21.1603L150.139 20.6458H153.593C155.039 20.6458 156.239 20.4621 157.195 20.0946C158.15 19.7272 158.86 19.1882 159.326 18.4777C159.791 17.7673 160.024 16.8976 160.024 15.8687C160.024 14.8643 159.816 14.0313 159.399 13.3699C158.983 12.7084 158.37 12.2184 157.562 11.9C156.754 11.557 155.737 11.3855 154.512 11.3855ZM154.512 32.6255C155.957 32.6255 157.158 32.4295 158.113 32.0375C159.069 31.6456 159.779 31.0944 160.245 30.3839C160.735 29.649 160.979 28.7548 160.979 27.7014C160.979 26.6724 160.759 25.8027 160.318 25.0923C159.902 24.3573 159.277 23.7939 158.444 23.4019C157.635 23.0099 156.656 22.8139 155.504 22.8139H150.139L150.69 22.226V33.14L150.139 32.6255H154.512ZM176.774 15.097C179.469 15.097 181.576 15.9422 183.095 17.6326C184.638 19.3229 185.41 21.7115 185.41 24.7983C185.41 26.8807 185.03 28.7058 184.27 30.2737C183.536 31.8171 182.482 33.0175 181.11 33.8749C179.738 34.7324 178.085 35.1611 176.149 35.1611C173.503 35.1611 171.433 34.3404 169.939 32.699C168.445 31.0331 167.697 28.6445 167.697 25.5333C167.697 23.3774 168.053 21.5278 168.763 19.9844C169.498 18.4165 170.539 17.2161 171.887 16.3831C173.258 15.5257 174.888 15.097 176.774 15.097ZM176.627 17.2651C174.741 17.2651 173.295 17.9755 172.291 19.3964C171.286 20.8173 170.784 22.8139 170.784 25.3863C170.784 27.9096 171.262 29.8082 172.217 31.0821C173.173 32.356 174.545 32.993 176.333 32.993C177.631 32.993 178.722 32.6745 179.604 32.0375C180.51 31.3761 181.184 30.4452 181.625 29.2447C182.09 28.0443 182.323 26.6112 182.323 24.9453C182.323 22.4465 181.821 20.5479 180.816 19.2494C179.836 17.9265 178.44 17.2651 176.627 17.2651ZM197.911 15.097C200.606 15.097 202.713 15.9422 204.231 17.6326C205.775 19.3229 206.547 21.7115 206.547 24.7983C206.547 26.8807 206.167 28.7058 205.407 30.2737C204.672 31.8171 203.619 33.0175 202.247 33.8749C200.875 34.7324 199.222 35.1611 197.286 35.1611C194.64 35.1611 192.57 34.3404 191.076 32.699C189.582 31.0331 188.834 28.6445 188.834 25.5333C188.834 23.3774 189.19 21.5278 189.9 19.9844C190.635 18.4165 191.676 17.2161 193.024 16.3831C194.395 15.5257 196.025 15.097 197.911 15.097ZM197.764 17.2651C195.878 17.2651 194.432 17.9755 193.428 19.3964C192.423 20.8173 191.921 22.8139 191.921 25.3863C191.921 27.9096 192.399 29.8082 193.354 31.0821C194.31 32.356 195.682 32.993 197.47 32.993C198.768 32.993 199.859 32.6745 200.74 32.0375C201.647 31.3761 202.321 30.4452 202.762 29.2447C203.227 28.0443 203.46 26.6112 203.46 24.9453C203.46 22.4465 202.958 20.5479 201.953 19.2494C200.973 17.9265 199.577 17.2651 197.764 17.2651ZM209.126 34.8304V33.2502L212.47 32.5153L212.029 33.14V8.5192L212.323 8.96016L209.126 8.29871V6.71857L214.969 6.46134V23.5489L214.418 23.0712H219.489L218.717 23.4754L222.612 17.1548L222.87 17.5591L219.856 17.1181V15.538L227.904 15.2807V16.8609L224.633 17.5223L225.479 16.9711L220.995 24.2103L220.959 23.3284L226.434 33.0297L225.883 32.552L228.896 33.2502V34.8304H224.303L218.827 24.8351L219.415 25.129H214.418L214.969 24.7983V33.14L214.565 32.5153L217.762 33.2502V34.8304H209.126Z" fill="#113535"/>
<path fill-rule="evenodd" clip-rule="evenodd" d="M14.2799 3.61676C15.5048 3.61676 16.4979 4.60979 16.4979 5.83476V30.8319C16.4979 31.2402 16.1669 31.5712 15.7585 31.5712H0.882095C0.473756 31.5712 0.142761 31.2402 0.142761 30.8319V5.83476C0.142761 4.60979 1.13579 3.61676 2.36076 3.61676H14.2799ZM8.97609 8.03566C8.69988 7.50512 7.94074 7.50512 7.66452 8.0357L6.2401 10.7716C6.13292 10.9775 5.93532 11.1211 5.7064 11.1594L2.66423 11.6686C2.07426 11.7674 1.8397 12.4893 2.25891 12.916L4.42078 15.1161C4.58341 15.2817 4.65891 15.514 4.62461 15.7436L4.16889 18.7942C4.08049 19.3858 4.69464 19.832 5.22997 19.5651L7.99046 18.189C8.19818 18.0854 8.44244 18.0854 8.65015 18.189L11.4106 19.5651C11.946 19.832 12.5601 19.3858 12.4717 18.7942L12.016 15.7436C11.9817 15.514 12.0572 15.2817 12.2198 15.1161L14.3817 12.916C14.8009 12.4893 14.5664 11.7674 13.9764 11.6686L10.9342 11.1594C10.7053 11.1211 10.5077 10.9775 10.4005 10.7716L8.97609 8.03566Z" fill="#113535"/>
<path d="M15.7585 34.9439C16.1669 34.9439 16.4979 35.2748 16.4979 35.6832V42.0483C16.4979 43.2733 15.5048 44.2663 14.2799 44.2663H2.36076C1.13579 44.2663 0.142761 43.2733 0.142761 42.0483V35.6832C0.142761 35.2748 0.473756 34.9439 0.882095 34.9439H15.7585Z" fill="#113535"/>
<path fill-rule="evenodd" clip-rule="evenodd" d="M30.4202 1.7794C31.6265 1.56669 32.7769 2.37219 32.9896 3.57856L37.3303 28.1959C37.4013 28.5981 37.1328 28.9815 36.7306 29.0524L22.0802 31.6357C21.6781 31.7066 21.2946 31.4381 21.2237 31.036L16.883 6.41859C16.6703 5.21223 17.4758 4.06185 18.6822 3.84913L30.4202 1.7794ZM25.9643 7.05216C25.6002 6.57764 24.8526 6.70947 24.6727 7.27995L23.745 10.2216C23.6752 10.443 23.5055 10.6187 23.2867 10.6962L20.3792 11.726C19.8154 11.9257 19.7097 12.6774 20.1967 13.0247L22.7077 14.8161C22.8966 14.9509 23.0113 15.1666 23.0174 15.3986L23.0984 18.482C23.114 19.0799 23.7963 19.4127 24.2772 19.057L26.7568 17.2224C26.9434 17.0843 27.1839 17.0419 27.4064 17.1078L30.364 17.9837C30.9375 18.1535 31.4648 17.6075 31.2751 17.0403L30.2965 14.1151C30.2229 13.895 30.2569 13.6531 30.3883 13.4618L32.1353 10.9196C32.474 10.4267 32.1177 9.75646 31.5195 9.76162L28.4351 9.78839C28.203 9.79041 27.9835 9.68332 27.8422 9.49919L25.9643 7.05216Z" fill="#113535"/>
<path d="M37.3163 32.3738C37.7184 32.3029 38.1019 32.5714 38.1728 32.9735L39.2781 39.242C39.4908 40.4483 38.6853 41.5987 37.4789 41.8114L25.7409 43.8812C24.5345 44.0939 23.3842 43.2884 23.1714 42.082L22.0661 35.8135C21.9952 35.4114 22.2637 35.028 22.6659 34.9571L37.3163 32.3738Z" fill="#113535"/>
</svg>
