<svg width="36" height="34" viewBox="0 0 36 34" fill="none" xmlns="http://www.w3.org/2000/svg">
<path d="M32.4419 28.6224L25.8151 22.3125C27.802 19.8481 28.7297 16.7567 28.4098 13.6653C28.09 10.5739 26.5467 7.71398 24.0929 5.66577C21.6392 3.61756 18.4587 2.5344 15.1967 2.63601C11.9348 2.73762 8.83551 4.01639 6.5277 6.21292C4.21989 8.40945 2.87634 11.3593 2.76958 14.464C2.66282 17.5686 3.80086 20.5958 5.95283 22.9312C8.1048 25.2667 11.1096 26.7356 14.3576 27.04C17.6056 27.3443 20.8537 26.4614 23.4429 24.5703L30.0753 30.8842C30.231 31.0325 30.416 31.1501 30.6195 31.2303C30.823 31.3105 31.0411 31.3518 31.2614 31.3518C31.4817 31.3518 31.6998 31.3105 31.9033 31.2303C32.1068 31.1501 32.2917 31.0325 32.4475 30.8842C32.6032 30.736 32.7268 30.56 32.8111 30.3663C32.8954 30.1726 32.9388 29.965 32.9388 29.7553C32.9388 29.5457 32.8954 29.3381 32.8111 29.1444C32.7268 28.9507 32.6032 28.7747 32.4475 28.6264L32.4419 28.6224ZM6.13983 14.875C6.13983 13.0888 6.69634 11.3427 7.73898 9.85751C8.78162 8.37233 10.2636 7.21477 11.9974 6.53121C13.7313 5.84766 15.6391 5.66881 17.4798 6.01728C19.3204 6.36576 21.0112 7.2259 22.3382 8.48894C23.6652 9.75199 24.5689 11.3612 24.9351 13.1131C25.3012 14.865 25.1133 16.6809 24.3951 18.3311C23.6769 19.9814 22.4607 21.3918 20.9003 22.3842C19.3399 23.3766 17.5053 23.9063 15.6286 23.9063C13.1128 23.9038 10.7008 22.9515 8.92188 21.2583C7.14295 19.5652 6.14242 17.2695 6.13983 14.875Z" fill="#113535"/>
</svg>
