<svg width="24" height="24" viewBox="0 0 24 24" fill="none" xmlns="http://www.w3.org/2000/svg">
<path d="M3.4 20.4L20.85 12.92C21.0304 12.8431 21.1842 12.715 21.2923 12.5514C21.4004 12.3878 21.4581 12.1961 21.4581 12C21.4581 11.8039 21.4004 11.6122 21.2923 11.4486C21.1842 11.285 21.0304 11.1568 20.85 11.08L3.4 3.59999C3.2489 3.53409 3.08377 3.50684 2.91951 3.5207C2.75525 3.53456 2.59702 3.58909 2.4591 3.67939C2.32118 3.76968 2.20791 3.89289 2.1295 4.03789C2.0511 4.1829 2.01003 4.34515 2.01 4.50999L2 9.11999C2 9.61999 2.37 10.05 2.87 10.11L17 12L2.87 13.88C2.37 13.95 2 14.38 2 14.88L2.01 19.49C2.01 20.2 2.74 20.69 3.4 20.4Z" fill="#A0DFC7"/>
</svg>
