<svg width="47" height="47" viewBox="0 0 47 47" fill="none" xmlns="http://www.w3.org/2000/svg">
<path d="M32.5083 11.3975C31.1697 9.86926 30.4319 7.90664 30.4325 5.875H24.3813V30.1583C24.3346 31.4724 23.7798 32.7171 22.8337 33.6303C21.8876 34.5435 20.6241 35.054 19.3092 35.0542C16.5283 35.0542 14.2175 32.7825 14.2175 29.9625C14.2175 26.5942 17.4683 24.0679 20.8171 25.1058V18.9175C14.0608 18.0167 8.14667 23.265 8.14667 29.9625C8.14667 36.4838 13.5517 41.125 19.2896 41.125C25.4388 41.125 30.4325 36.1313 30.4325 29.9625V17.6446C32.8863 19.4068 35.8323 20.3523 38.8533 20.3471V14.2958C38.8533 14.2958 35.1717 14.4721 32.5083 11.3975Z" fill="#A0DFC7"/>
</svg>
