<svg width="140" height="140" viewBox="0 0 140 140" fill="none" xmlns="http://www.w3.org/2000/svg">
<g clip-path="url(#clip0_262_65)">
<path fill-rule="evenodd" clip-rule="evenodd" d="M70.0001 11.6667C37.7826 11.6667 11.6667 37.7825 11.6667 70C11.6667 102.217 37.7826 128.333 70.0001 128.333C102.218 128.333 128.333 102.217 128.333 70C128.333 37.7825 102.218 11.6667 70.0001 11.6667ZM49.5834 55.4167C49.5834 52.7355 50.1115 50.0806 51.1375 47.6035C52.1636 45.1265 53.6675 42.8758 55.5633 40.9799C57.4592 39.084 59.7099 37.5802 62.187 36.5541C64.664 35.5281 67.3189 35 70.0001 35C72.6812 35 75.3361 35.5281 77.8132 36.5541C80.2903 37.5802 82.541 39.084 84.4368 40.9799C86.3327 42.8758 87.8366 45.1265 88.8626 47.6035C89.8887 50.0806 90.4168 52.7355 90.4168 55.4167C90.4168 60.8315 88.2657 66.0246 84.4368 69.8534C80.608 73.6823 75.4149 75.8333 70.0001 75.8333C64.5852 75.8333 59.3922 73.6823 55.5633 69.8534C51.7345 66.0246 49.5834 60.8315 49.5834 55.4167ZM106.505 99.0733C102.138 104.566 96.5873 109.001 90.2661 112.048C83.9449 115.094 77.0171 116.673 70.0001 116.667C62.9831 116.673 56.0553 115.094 49.7341 112.048C43.4129 109.001 37.8617 104.566 33.4951 99.0733C42.9509 92.2892 55.8542 87.5 70.0001 87.5C84.1459 87.5 97.0492 92.2892 106.505 99.0733Z" fill="white"/>
</g>
<defs>
<clipPath id="clip0_262_65">
<rect width="140" height="140" fill="white"/>
</clipPath>
</defs>
</svg>
