<svg width="47" height="47" viewBox="0 0 47 47" fill="none" xmlns="http://www.w3.org/2000/svg">
<path d="M19.5833 29.375L29.7471 23.5L19.5833 17.625V29.375ZM42.2217 14.0412C42.4762 14.9616 42.6525 16.1954 42.77 17.762C42.9071 19.3287 42.9658 20.68 42.9658 21.855L43.0833 23.5C43.0833 27.7887 42.77 30.9416 42.2217 32.9587C41.7321 34.7212 40.5962 35.857 38.8337 36.3466C37.9133 36.6012 36.2292 36.7775 33.6442 36.895C31.0983 37.032 28.7679 37.0908 26.6137 37.0908L23.5 37.2083C15.2946 37.2083 10.1833 36.895 8.16624 36.3466C6.40374 35.857 5.26791 34.7212 4.77832 32.9587C4.52374 32.0383 4.34749 30.8045 4.22999 29.2379C4.09291 27.6712 4.03416 26.32 4.03416 25.145L3.91666 23.5C3.91666 19.2112 4.22999 16.0583 4.77832 14.0412C5.26791 12.2787 6.40374 11.1429 8.16624 10.6533C9.08666 10.3987 10.7708 10.2225 13.3558 10.105C15.9017 9.96788 18.2321 9.90913 20.3862 9.90913L23.5 9.79163C31.7054 9.79163 36.8167 10.105 38.8337 10.6533C40.5962 11.1429 41.7321 12.2787 42.2217 14.0412Z" fill="#A0DFC7"/>
</svg>
